<svg xmlns:xlink="http://www.w3.org/1999/xlink" xmlns="http://www.w3.org/2000/svg" version="1.1" id="图层_1" x="0px" y="0px" viewBox="169.83 183.25 292.33 431.84"><path fill="#FFFFFF" d="M293.113,552.78c0.087-0.493,0.2-1.131,0.328-1.851L293.113,552.78z M411.242,271.596  c-17.008-22.736-37.828-38.608-60.573-46.604c0.349-1.994,0.706-4.036,1.049-5.998c0.379-2.163,0.738-4.22,1.049-5.996  c0.592-3.384,1.004-5.736,1.01-5.771c0.14-0.546,1.688-6.665,2.183-12.106c0.031-0.343,0.05-0.71,0.05-1.095  c0-3.647-1.72-8.854-11.132-10.002l-2.14-0.283c-6.904-0.949-13.425-1.846-16.279,10.733c-0.256,1.129-1.059,5.432-2.396,12.84  c-0.323,1.796-0.68,3.775-1.066,5.937c-0.331,1.852-0.686,3.838-1.063,5.956c-1.971-0.113-3.949-0.179-5.935-0.179  c-36.06,0-69.885,18.669-95.245,52.567c-25.1,33.552-38.922,78.098-38.922,125.432c0,47.335,13.823,91.881,38.922,125.434  c12.171,16.27,26.296,29.02,41.679,37.893c-0.377,2.183-0.741,4.285-1.088,6.297c-0.378,2.187-0.737,4.267-1.079,6.244  c-2.555,14.793-4.08,23.668-4.327,25.186c-1.948,11.966,3.4,14.315,10.053,15.979c4.368,1.092,8.913,1.794,12.553-0.442  c2.491-1.53,4.199-4.261,5.077-8.117c0.291-1.273,1.62-8.528,4.028-21.992c0.333-1.857,0.685-3.831,1.059-5.926  c0.335-1.881,0.687-3.854,1.056-5.928c8.546,2.229,17.321,3.374,26.234,3.374c36.061,0,69.886-18.669,95.244-52.567  c25.1-33.551,38.923-78.098,38.923-125.434C450.165,349.693,436.342,305.147,411.242,271.596z M322.175,237.89  c0.867-4.907,1.662-9.398,2.386-13.472c0.119-0.67,0.236-1.33,0.352-1.977c0.182-1.022,0.357-2.009,0.529-2.975  c0.376-2.111,0.73-4.095,1.061-5.936c0.387-2.161,0.741-4.136,1.063-5.922c1.289-7.141,2.062-11.278,2.307-12.36  c2.143-9.449,5.566-8.978,12.388-8.04l2.193,0.29h0.001c6.878,0.838,8.062,3.866,8.062,6.417c0,0.304-0.017,0.602-0.043,0.888  c-0.48,5.289-2.088,11.558-2.104,11.62c-0.012,0.045-0.021,0.09-0.029,0.136l-0.94,5.375l-1.044,5.967l-1.045,5.969l-0.53,3.035  l-0.348,1.984l-5.053,28.881c0,0-5.764,32.92-5.991,34.221c-1.216-0.674-2.421-1.354-3.596-2.066  c-0.019-0.012-0.037-0.023-0.057-0.035c-0.379-0.23-0.756-0.464-1.13-0.702c-0.004-0.002-0.008-0.005-0.012-0.008  c-1.079-0.687-2.133-1.412-3.158-2.189c-0.086-0.064-0.173-0.126-0.258-0.192c-0.226-0.174-0.448-0.355-0.671-0.535  c-0.163-0.131-0.327-0.261-0.488-0.396c-0.198-0.166-0.395-0.338-0.59-0.509c-0.182-0.158-0.363-0.316-0.542-0.479  c-0.184-0.167-0.364-0.339-0.545-0.512c-0.187-0.177-0.372-0.356-0.556-0.54c-0.172-0.171-0.342-0.347-0.512-0.523  c-0.188-0.197-0.375-0.399-0.561-0.603c-0.16-0.176-0.32-0.354-0.478-0.536c-0.19-0.22-0.379-0.446-0.565-0.674  c-0.147-0.18-0.295-0.359-0.439-0.544c-0.195-0.25-0.387-0.508-0.577-0.768c-0.132-0.178-0.265-0.354-0.394-0.537  c-0.21-0.299-0.414-0.611-0.618-0.923c-0.104-0.158-0.21-0.31-0.312-0.472c-0.304-0.482-0.601-0.979-0.89-1.495  c-0.161-0.288-0.313-0.575-0.454-0.86c-0.28-0.563-0.512-1.118-0.715-1.667c-0.001-0.004-0.002-0.009-0.004-0.013  c-0.133-0.36-0.247-0.717-0.347-1.07c-0.049-0.176-0.091-0.352-0.131-0.526c-0.059-0.249-0.107-0.496-0.148-0.741  c-0.031-0.185-0.065-0.37-0.087-0.551c-0.041-0.348-0.064-0.691-0.071-1.03c0-0.023-0.004-0.047-0.004-0.07  c0.062-0.349,0.581-3.309,0.581-3.309l0.021-0.121L322.175,237.89z M295.025,541.979c0.102-0.576,0.19-1.074,0.257-1.454  c17.125,4.464,32.241,3.867,41.66-1.771c5.123-3.067,8.471-7.566,9.681-13.011c0.367-1.653,0.542-3.252,0.542-4.799  c0-15.478-17.47-25.823-34.202-34.389l-5.673-2.862l-2.983-1.497c-0.001-0.001-0.001-0.002-0.002-0.002  c-0.92-0.464-1.862-0.942-2.813-1.429c-0.211-0.107-0.423-0.217-0.635-0.325c-0.885-0.455-1.782-0.924-2.685-1.399  c0.893,0.471,1.78,0.935,2.655,1.384c-0.979-0.504-1.972-1.021-2.973-1.55c-0.973-0.516-1.954-1.043-2.939-1.583  c-0.247-0.135-0.495-0.271-0.743-0.409c-0.032-0.018-0.063-0.036-0.095-0.054c-2.467-1.368-4.951-2.814-7.389-4.359  c-1.967-1.246-3.903-2.554-5.776-3.928c-12.423-9.112-19.587-19.227-22.545-31.829c-0.588-2.503-0.864-4.912-0.864-7.229  c0-18.51,17.604-31.127,34.426-38.959l-6.436,37.428c0,0.002-0.001,0.004-0.002,0.006c-0.529,2.339-0.349,4.704,0.536,7.028  c2.279,5.983,10.764,10.87,22.503,17.12l4.375,2.316c10.289,5.433,23.094,12.194,36.013,21.13  c24.436,16.901,31.236,35.562,20.214,55.463c-5.008,9.042-20.686,29.589-58.011,25.11c-6.659-0.8-12.58-1.762-18.086-2.912  c0.022-0.127,0.049-0.276,0.077-0.433l1.797-10.155c0.101-0.566,0.19-1.073,0.267-1.506L295.025,541.979z M267.74,529.691  c-0.152,0.881-0.624,3.603-1.122,6.478c-0.102,0.59-0.205,1.185-0.307,1.772l0.066-0.38c-0.43,2.482-0.845,4.879-1.058,6.109  c-8.268-4.461-14.708-10.016-19.454-17.038c-2.816-4.168-4.237-9-4.237-13.884c0-4.169,1.036-8.376,3.124-12.238  c5.448-10.08,16.644-15.897,30.864-16.228l-0.794,4.572c-7.355,0.734-18.759,3.465-22.3,13.156  c-0.695,1.902-1.167,4.041-1.167,6.341C251.354,514.752,255.084,522.399,267.74,529.691z M296.656,383.697  c2.538-14.543,10.867-62.288,11.542-66.155c0.146,0.083,0.377,0.214,0.512,0.29c0.065,0.038,0.106,0.061,0.106,0.061l4.146,2.261  c5.024,2.716,10.667,5.793,15.848,9.4c-0.374,2.135-8.301,47.351-8.301,47.351l-4.86,27.704l-7.6,43.268  c-9.381-5.05-17.038-9.646-18.749-14.138c-0.61-1.603-0.742-3.159-0.433-4.746L296.656,383.697z M324.354,400.12  c0,0-2.474,1.026-4.707,1.953c0.173-0.984,0.441-2.513,0.759-4.324c1.215-6.92,3.164-18.031,3.383-19.281  c12.359-4.936,24.635-11.849,24.635-25.29c0-0.203-0.003-0.407-0.009-0.613c-0.25-9.134-5.701-17.393-16.665-25.25  c-5.597-4.01-11.72-7.32-17.122-10.241l-4.112-2.242l-2.739-1.551c-10.993-6.36-21.665-14.414-21.665-36.149  c0-0.878,0.018-1.779,0.053-2.703c0.682-17.734,12.642-30.516,32.12-34.624l-4.647,26.388c-0.424,1.253-0.662,2.566-0.662,3.92  c0,0.002,0,0.005,0,0.008v0.001c0,2.34,0.622,4.782,1.851,7.273c0.176,0.356,0.363,0.712,0.563,1.07  c5.335,9.526,13.026,13.722,20.465,17.78l0.721,0.393c3.04,1.657,6.185,3.371,9.393,5.442c11.364,7.339,29.243,22.826,29.243,47.571  c0,2.401-0.168,4.89-0.527,7.467C371.35,381.033,343.068,392.519,324.354,400.12z M373.815,283.563  c-2.105-2.807-3.066-4.553-3.838-5.955c-0.597-1.084-1.112-2.021-1.934-3.073c-0.339-0.488-9.388-13.179-22.954-17.655  c0.408-2.337,2.525-14.431,2.983-17.05c0.002,0,0.03,0.005,0.034,0.005c0.001,0,0.003,0,0.004,0.001  c25.146,4.438,40.971,21.495,45.033,35.464c0.603,2.071,0.899,3.986,0.899,5.654c0,2.39-0.61,4.271-1.81,5.367  c-2.771,2.533-5.682,3.677-8.652,3.398C379.499,289.337,375.859,286.288,373.815,283.563z M184.831,397.028  c0-96.495,58.841-175,131.167-175c1.811,0,3.61,0.063,5.404,0.16c-0.116,0.65-0.233,1.312-0.353,1.984  c-1.677-0.087-3.359-0.145-5.052-0.145c-71.223,0-129.167,77.607-129.167,173c0,70.298,31.469,130.93,76.528,157.97  c-0.122,0.703-0.243,1.404-0.362,2.092C216.999,529.871,184.831,468.372,184.831,397.028z M289.293,554.279  c-0.718,4.053-1.394,7.859-2.028,11.43c-0.119,0.668-0.235,1.327-0.351,1.978c-0.183,1.03-0.363,2.04-0.539,3.027  c-0.369,2.077-0.722,4.055-1.059,5.943c-0.374,2.098-0.728,4.077-1.061,5.942c-2.411,13.479-3.769,20.901-4.047,22.123  c-0.671,2.945-1.815,4.88-3.497,5.913c-2.666,1.638-6.494,0.873-9.873,0.029c-4.806-1.202-7.822-2.283-7.822-7.986  c0-1.146,0.122-2.478,0.375-4.035c0.24-1.474,1.695-9.941,4.135-24.07c0.337-1.954,0.694-4.018,1.068-6.186  c0.344-1.99,0.703-4.067,1.078-6.232c0.182-1.053,0.368-2.13,0.558-3.224c0.118-0.683,0.237-1.371,0.358-2.069  c0.557-3.222,1.142-6.601,1.755-10.144c0-0.001,0-0.003,0-0.004c0,0,1.354-7.821,2.257-13.035l0.1-0.576  c0.06-0.348,0.117-0.679,0.172-0.994l0.183-1.054c0.051-0.293,0.098-0.565,0.138-0.8l0.138-0.796  c0.018-0.104,0.032-0.185,0.042-0.241c0.011-0.061,0.018-0.104,0.018-0.104s9.289-53.553,9.738-56.139  c0.002-0.017,0.007-0.04,0.009-0.052c6.718,4.64,13.924,8.504,20.43,11.799c0,0.002-0.001,0.005-0.001,0.005  c-0.438,2.486-9.406,53.342-9.406,53.342L289.293,554.279z M315.998,572.029c-8.794,0-17.386-1.17-25.7-3.382  c0.115-0.647,0.232-1.308,0.351-1.972c8.2,2.194,16.675,3.354,25.349,3.354c71.223,0,129.167-77.607,129.167-173.001  c0-79.739-40.492-147.04-95.38-166.983c0.112-0.645,0.229-1.31,0.349-1.994c55.826,20.095,97.031,88.231,97.031,168.977  C447.165,493.524,388.324,572.029,315.998,572.029z M294.911,542.625l-1.47,8.305C293.873,548.491,294.48,545.057,294.911,542.625z"></path><path d="M274.821,488.855l0.794-4.572c-14.22,0.33-25.416,6.147-30.864,16.228c-2.088,3.862-3.124,8.069-3.124,12.238  c0,4.884,1.421,9.716,4.237,13.884c4.746,7.022,11.187,12.577,19.454,17.038l1.299-7.502c0.498-2.875,0.969-5.597,1.122-6.478  c-12.656-7.292-16.386-14.939-16.386-21.339c0-2.3,0.472-4.438,1.167-6.341C256.062,492.32,267.466,489.59,274.821,488.855z   M368.044,274.535c0.821,1.052,1.337,1.988,1.934,3.073c0.771,1.402,1.732,3.148,3.838,5.955c2.044,2.726,5.684,5.774,9.767,6.157  c2.971,0.278,5.882-0.865,8.652-3.398c1.199-1.096,1.81-2.977,1.81-5.367c0-1.667-0.297-3.583-0.899-5.654  c-4.063-13.97-19.888-31.027-45.033-35.464c-0.001,0-0.003-0.001-0.004-0.001c-0.004,0-0.032-0.005-0.034-0.005  c-0.458,2.619-2.575,14.712-2.983,17.05C358.656,261.356,367.705,274.046,368.044,274.535z M313.636,266.194l4.647-26.388  c-19.478,4.108-31.438,16.89-32.12,34.624c-0.035,0.924-0.053,1.825-0.053,2.703c0,21.735,10.672,29.789,21.665,36.149l2.739,1.551  l4.112,2.242c5.402,2.921,11.525,6.231,17.122,10.241c10.964,7.856,16.415,16.116,16.665,25.25c0.006,0.206,0.009,0.411,0.009,0.613  c0,13.441-12.275,20.354-24.635,25.29c-0.219,1.25-2.168,12.36-3.383,19.281l-0.759,4.324c2.233-0.927,4.707-1.953,4.707-1.953  c18.715-7.601,46.996-19.086,50.328-42.999c0.359-2.577,0.527-5.065,0.527-7.467c0-24.746-17.879-40.232-29.243-47.571  c-3.208-2.072-6.353-3.785-9.393-5.442l-0.721-0.393c-7.438-4.058-15.13-8.253-20.465-17.78c-0.2-0.358-0.388-0.714-0.563-1.07  c-1.229-2.491-1.851-4.933-1.851-7.273v-0.01C312.974,268.76,313.212,267.447,313.636,266.194z M336.942,538.753  c-9.419,5.639-24.535,6.235-41.66,1.771l-0.372,2.101c-0.557,3.149-1.414,7.989-1.797,10.155l-0.077,0.433  c5.506,1.15,11.427,2.112,18.086,2.912c37.325,4.479,53.003-16.068,58.011-25.11c11.022-19.901,4.222-38.562-20.214-55.463  c-12.919-8.936-25.724-15.697-36.013-21.13l-4.375-2.316c-11.739-6.25-20.224-11.137-22.503-17.12  c-0.885-2.324-1.065-4.689-0.536-7.028c0-0.002,0.001-0.004,0.002-0.006l6.436-37.428c-16.821,7.832-34.426,20.449-34.426,38.959  c0,2.317,0.276,4.727,0.864,7.229c2.958,12.603,10.123,22.717,22.545,31.829c1.873,1.374,3.809,2.682,5.776,3.928  c5.9,3.739,12.073,6.932,17.615,9.725c0.001,0,0.001,0.001,0.002,0.002l2.983,1.497l5.673,2.862  c16.732,8.565,34.202,18.911,34.202,34.389c0,1.547-0.175,3.146-0.542,4.799C345.413,531.187,342.065,535.686,336.942,538.753z   M317.084,266.797C317.084,266.798,317.084,266.798,317.084,266.797l-0.021,0.122c0,0-0.52,2.96-0.581,3.309  c0.02,1.784,0.521,3.686,1.507,5.669c0.142,0.285,0.293,0.572,0.454,0.86c0.289,0.516,0.586,1.012,0.89,1.495  c0.102,0.162,0.208,0.314,0.312,0.472c0.204,0.313,0.408,0.624,0.618,0.923c0.129,0.183,0.262,0.358,0.394,0.537  c0.19,0.26,0.382,0.519,0.577,0.768c0.145,0.185,0.292,0.364,0.439,0.544c0.187,0.228,0.375,0.454,0.565,0.674  c0.157,0.182,0.317,0.36,0.478,0.536c0.186,0.205,0.372,0.405,0.561,0.603c0.17,0.177,0.34,0.352,0.512,0.523  c0.184,0.183,0.369,0.362,0.556,0.54c0.181,0.172,0.361,0.345,0.545,0.512c0.179,0.163,0.36,0.321,0.542,0.479  c0.195,0.171,0.392,0.344,0.59,0.509c0.161,0.135,0.325,0.264,0.488,0.396c0.223,0.18,0.445,0.361,0.671,0.535  c0.085,0.066,0.172,0.128,0.258,0.192c1.025,0.777,2.079,1.502,3.158,2.189c0.004,0.002,0.008,0.005,0.012,0.008  c0.374,0.238,0.751,0.472,1.13,0.702c0.02,0.011,0.038,0.023,0.057,0.035c1.177,0.714,2.378,1.396,3.596,2.069  c0.223-1.271,5.991-34.224,5.991-34.224l5.053-28.881l0.348-1.984l0.53-3.035l1.045-5.969l1.044-5.967l0.94-5.375  c0.008-0.046,0.018-0.091,0.029-0.136c0.016-0.063,1.623-6.331,2.104-11.62c0.026-0.287,0.043-0.584,0.043-0.888  c0-2.552-1.184-5.579-8.062-6.417h-0.001l-2.193-0.29c-6.821-0.938-10.245-1.409-12.388,8.04c-0.245,1.082-1.018,5.22-2.307,12.36  c-0.322,1.786-0.677,3.761-1.063,5.922c-0.33,1.841-0.685,3.824-1.061,5.936c-0.172,0.966-0.348,1.952-0.529,2.975  c-0.115,0.647-0.232,1.307-0.352,1.977c-0.724,4.073-1.519,8.564-2.386,13.472L317.084,266.797z M292.163,538.07  c0,0,8.967-50.855,9.406-53.341c0,0,0.001-0.004,0.001-0.006c-6.506-3.295-13.712-7.159-20.43-11.799  c-0.002,0.012-0.006,0.035-0.009,0.052c-0.449,2.586-9.738,56.139-9.738,56.139s-0.007,0.043-0.018,0.104l-0.042,0.241  c-0.034,0.194-0.08,0.458-0.138,0.796l-0.138,0.8c-0.056,0.321-0.117,0.674-0.183,1.054l-0.172,0.994  c-0.033,0.188-0.066,0.381-0.1,0.576c-0.903,5.214-2.257,13.035-2.257,13.035c0,0.001,0,0.003,0,0.004  c-0.613,3.543-1.198,6.922-1.755,10.144c-0.121,0.698-0.24,1.387-0.358,2.069c-0.189,1.094-0.375,2.171-0.558,3.224  c-0.375,2.165-0.733,4.242-1.078,6.232c-0.375,2.168-0.731,4.231-1.068,6.186c-2.44,14.129-3.895,22.597-4.135,24.07  c-0.253,1.558-0.375,2.89-0.375,4.035c0,5.703,3.017,6.784,7.822,7.986c3.379,0.844,7.207,1.608,9.873-0.029  c1.682-1.033,2.826-2.968,3.497-5.913c0.279-1.222,1.637-8.645,4.047-22.123c0.333-1.865,0.688-3.845,1.061-5.942  c0.337-1.889,0.689-3.866,1.059-5.943c0.176-0.987,0.355-1.997,0.539-3.027c0.116-0.65,0.232-1.31,0.351-1.978  c0.634-3.57,1.31-7.377,2.028-11.43L292.163,538.07z M261.344,566.651c0.348-2.012,0.711-4.114,1.088-6.297  c-15.382-8.873-29.507-21.623-41.679-37.893c-25.1-33.553-38.922-78.099-38.922-125.434c0-47.334,13.823-91.88,38.922-125.432  c25.359-33.898,59.185-52.567,95.245-52.567c1.985,0,3.964,0.066,5.935,0.179c0.378-2.118,0.732-4.104,1.063-5.956  c0.387-2.162,0.743-4.14,1.066-5.937c-2.675-0.185-5.362-0.287-8.064-0.287c-39.935,0-77.173,20.377-104.853,57.379  c-26.642,35.613-41.314,82.712-41.314,132.621c0,49.909,14.672,97.008,41.314,132.621c14.173,18.946,30.856,33.521,49.12,43.246  C260.606,570.918,260.966,568.838,261.344,566.651z M328.81,329.554c-5.181-3.607-10.823-6.685-15.848-9.4l-4.146-2.261  c0,0-0.046-0.026-0.106-0.061c-0.135-0.076-0.365-0.207-0.512-0.29c-0.675,3.867-9.004,51.612-11.542,66.155l-7.789,45.296  c-0.309,1.587-0.177,3.144,0.433,4.746c1.71,4.491,9.368,9.088,18.749,14.138l7.6-43.268l4.86-27.704  C320.509,376.905,328.436,331.688,328.81,329.554z M420.852,264.408c-18.949-25.33-42.379-42.865-68.085-51.41  c-0.311,1.775-0.67,3.833-1.049,5.996c-0.343,1.962-0.7,4.004-1.049,5.998c22.745,7.997,43.565,23.869,60.573,46.604  c25.1,33.551,38.923,78.097,38.923,125.432c0,47.336-13.823,91.883-38.923,125.434c-25.358,33.898-59.184,52.567-95.244,52.567  c-8.913,0-17.688-1.145-26.234-3.374c-0.369,2.073-0.721,4.047-1.056,5.928c-0.374,2.095-0.726,4.068-1.059,5.926  c9.229,2.321,18.709,3.521,28.349,3.521c39.936,0,77.173-20.378,104.854-57.38c26.642-35.611,41.313-82.711,41.313-132.621  C462.165,347.119,447.493,300.02,420.852,264.408z M321.402,222.189c-1.794-0.097-3.594-0.16-5.404-0.16  c-72.326,0-131.167,78.504-131.167,175c0,71.344,32.168,132.843,78.166,160.062c0.119-0.688,0.24-1.389,0.362-2.092  c-45.059-27.04-76.528-87.672-76.528-157.97c0-95.392,57.944-173,129.167-173c1.692,0,3.375,0.058,5.052,0.145  C321.169,223.5,321.286,222.839,321.402,222.189z M290.298,568.647c8.314,2.212,16.906,3.382,25.7,3.382  c72.326,0,131.167-78.505,131.167-175.001c0-80.746-41.205-148.882-97.031-168.977c-0.12,0.684-0.236,1.349-0.349,1.994  c54.888,19.943,95.38,87.244,95.38,166.983c0,95.394-57.944,173.001-129.167,173.001c-8.674,0-17.149-1.159-25.349-3.354  C290.531,567.34,290.414,568,290.298,568.647z"></path></svg>